<mxfile host="app.diagrams.net" modified="2023-07-03T11:14:26.796Z" agent="Mozilla/5.0 (Windows NT 10.0; Win64; x64) AppleWebKit/537.36 (KHTML, like Gecko) Chrome/114.0.0.0 Safari/537.36" version="21.3.5" etag="_9qPI6--FnZ8BK2PEm0G" type="github">
  <diagram name="第 1 页" id="wEZf2Ca0NMVdDbW9fIyj">
    <mxGraphModel>
      <root>
        <mxCell id="0" />
        <mxCell id="1" parent="0" />
      </root>
    </mxGraphModel>
  </diagram>
</mxfile>
